<?xml version="1.0" encoding="utf-8"?>
<!-- Generator: Adobe Illustrator 25.0.0, SVG Export Plug-In . SVG Version: 6.00 Build 0)  -->
<svg version="1.1" xmlns="http://www.w3.org/2000/svg" xmlns:xlink="http://www.w3.org/1999/xlink" x="0px" y="0px"
	 viewBox="0 0 1000 1000" style="enable-background:new 0 0 1000 1000;" xml:space="preserve">
<style type="text/css">
	.st0{fill:#005458;}
</style>
<g id="Your_design">
</g>
<g id="Guides">
	<path class="st0" d="M592.59,292.59c-92.98,0-171.86,61.5-198.11,145.95c-11.44,8.83-25.53,13.71-40.01,13.71h-57.71
		c-3.33-7.42-10.76-12.62-19.41-12.62c-11.74,0-21.3,9.55-21.3,21.3c0,11.74,9.55,21.29,21.3,21.29c8.64,0,16.07-5.2,19.4-12.61
		h57.71c11.87,0,23.54-2.58,34.22-7.42c-1.76,9.5-2.89,19.22-3.3,29.13H240.7c-3.33-7.42-10.76-12.62-19.4-12.62
		c-11.74,0-21.3,9.55-21.3,21.3c0,11.74,9.55,21.29,21.3,21.29c8.64,0,16.07-5.2,19.4-12.61h144.7c0.41,9.9,1.54,19.62,3.3,29.12
		c-10.68-4.84-22.36-7.42-34.22-7.42H327.8c-3.33-7.42-10.76-12.62-19.41-12.62c-11.74,0-21.3,9.55-21.3,21.3
		c0,11.74,9.55,21.29,21.3,21.29c8.64,0,16.07-5.2,19.4-12.61h26.67c14.48,0,28.57,4.88,40,13.7
		c26.25,84.46,105.14,145.95,198.12,145.95C706.96,707.41,800,614.37,800,500S706.96,292.59,592.59,292.59z M277.35,468.33
		c-4.08,0-7.4-3.32-7.4-7.4s3.32-7.4,7.4-7.4c4.08,0,7.4,3.32,7.4,7.4S281.43,468.33,277.35,468.33z M308.4,546.47
		c-4.08,0-7.4-3.32-7.4-7.4s3.32-7.4,7.4-7.4c4.08,0,7.4,3.32,7.4,7.4S312.48,546.47,308.4,546.47z M775.72,550.7
		c-22.79,14.43-47.05,26.02-72.32,34.64c6.06-24.97,9.46-50.64,10.08-76.65h68.94C781.76,523.17,779.45,537.22,775.72,550.7z
		 M601.27,396.48c28.14,0.7,55.86,4.83,82.64,12.21c7.38,26.78,11.5,54.5,12.21,82.63h-94.84V396.48z M601.27,379.11v-68.94
		c14.49,0.65,28.54,2.97,42.01,6.7c14.43,22.79,26.03,47.05,34.64,72.32C652.96,383.13,627.29,379.73,601.27,379.11z M583.91,379.11
		c-26.01,0.62-51.69,4.02-76.66,10.08c8.62-25.27,20.22-49.53,34.64-72.32c13.47-3.73,27.53-6.05,42.01-6.7V379.11z M583.91,396.48
		v94.84h-94.85c0.7-28.14,4.83-55.86,12.21-82.64C528.05,401.31,555.77,397.18,583.91,396.48z M583.91,508.68v94.84
		c-28.14-0.7-55.86-4.83-82.64-12.21c-7.38-26.78-11.5-54.5-12.21-82.63H583.91z M583.91,620.89v68.94
		c-14.49-0.65-28.54-2.97-42.02-6.7c-14.43-22.79-26.02-47.05-34.64-72.32C532.22,616.87,557.89,620.27,583.91,620.89z
		 M601.27,620.89c26.01-0.62,51.69-4.02,76.66-10.08c-8.62,25.27-20.22,49.52-34.64,72.32c-13.47,3.73-27.53,6.05-42.01,6.7V620.89z
		 M601.27,603.53v-94.84h94.84c-0.7,28.14-4.83,55.86-12.21,82.63C657.13,598.7,629.41,602.82,601.27,603.53z M713.48,491.32
		c-0.62-26.01-4.02-51.69-10.08-76.65c25.27,8.62,49.52,20.22,72.32,34.64c3.73,13.47,6.05,27.53,6.7,42.01H713.48z M766.59,423.7
		c-21.89-12.09-44.9-21.79-68.67-29.04c-7.25-23.77-16.95-46.78-29.04-68.67C712.42,345.16,747.43,380.17,766.59,423.7z M516.29,326
		c-12.09,21.89-21.79,44.9-29.04,68.67c-23.77,7.25-46.78,16.95-68.66,29.04C437.75,380.17,472.76,345.16,516.29,326z
		 M409.47,449.29c22.79-14.42,47.05-26.01,72.31-34.62c-6.06,24.97-9.46,50.64-10.08,76.65h-68.94
		C403.42,476.83,405.73,462.77,409.47,449.29z M221.3,507.4c-4.08,0-7.4-3.32-7.4-7.4s3.32-7.4,7.4-7.4c4.08,0,7.4,3.32,7.4,7.4
		S225.38,507.4,221.3,507.4z M471.7,508.68c0.62,26.01,4.02,51.68,10.08,76.65c-25.26-8.62-49.52-20.21-72.32-34.63
		c-3.74-13.48-6.05-27.53-6.7-42.02H471.7z M418.58,576.3c21.89,12.09,44.9,21.79,68.67,29.04c7.25,23.77,16.95,46.78,29.04,68.67
		C472.76,654.84,437.74,619.83,418.58,576.3z M668.89,674c12.09-21.89,21.79-44.9,29.04-68.67c23.77-7.25,46.78-16.95,68.67-29.04
		C747.43,619.83,712.42,654.84,668.89,674z"/>
</g>
</svg>
